<svg id="colorartlogo" xmlns="http://www.w3.org/2000/svg" viewBox="0 0 142 41"><title>Untitled-3</title><g id="icondist"><path d="M37.21,39.63s-3.06-21.15-36-33C-.63,29.65,13.47,37.74,16.82,39.53c1.58-3,.43-12.36.43-12.36S25,26.4,37.21,39.63Z" style="fill:#f05a28;opacity:0.76"/><path d="M37.2,39.62s3.57-18.88-21-38.6C7.92,20.1,17.56,31.09,19.88,33.59c2.23-2.11,4-10.38,4-10.38S30.64,24.8,37.2,39.62Z" style="fill:#9e1f63;opacity:0.76"/><path d="M37.2,39.62s7.41-13.57-6.49-34.74c-11.09,12.54-6.43,23.35-5.27,25.83,2.23-1.06,5.61-7,5.61-7S35.85,26.64,37.2,39.62Z" style="fill:#00adee;opacity:0.76"/><path d="M37.2,39.62s9.91-8.76,4.91-29.83c-12.57,6.85-12,16.9-11.77,19.24,2.1-.21,6.54-4,6.54-4S39.9,28.79,37.2,39.62Z" style="fill:#8bc53f;opacity:0.76"/></g><g id="textfiles"><path d="M55.8,22.56c0,3.6.64,6.92,3.93,6.92a4,4,0,0,0,3.81-2.66,1.81,1.81,0,0,1,1.08,1.81c0,2.77-3,4.11-5.82,4.11-5.8,0-7.88-4.22-7.88-9.55,0-5.73,2.36-9.71,8.1-9.71,2.93,0,5.7.9,5.7,3.84A2.6,2.6,0,0,1,62,20a3.13,3.13,0,0,1-1.42-.3,7.6,7.6,0,0,0,.19-1.46c0-1.56-.47-2.8-2-2.8C56,15.45,55.8,19.87,55.8,22.56Z" style="fill:#fff"/><path d="M78,25c0,4.56-2.11,7.79-6.64,7.79s-6.65-3.07-6.65-7.52,2.15-7.63,6.65-7.63S78,20.45,78,25Zm-4.39.14c0-2.47-.19-5.85-2.25-5.85s-2.25,3.4-2.25,5.85.11,6,2.25,6S73.62,27.61,73.62,25.09Z" style="fill:#fff"/><path d="M83.2,12.49V29.4a3,3,0,0,0,.85,2.36,3,3,0,0,1-2.14.79A2.59,2.59,0,0,1,79,29.67V12.93Z" style="fill:#fff"/><path d="M97.69,25c0,4.56-2.11,7.79-6.64,7.79s-6.65-3.07-6.65-7.52,2.14-7.63,6.65-7.63S97.69,20.45,97.69,25Zm-4.39.14c0-2.47-.19-5.85-2.25-5.85s-2.25,3.4-2.25,5.85.11,6,2.25,6S93.3,27.61,93.3,25.09Z" style="fill:#fff"/><path d="M102.85,24.21v7.93h-4.2v-14l3.43-.33.19,2.47A3.84,3.84,0,0,1,106,17.59a3.11,3.11,0,0,1,3.4,3.32,2.38,2.38,0,0,1-2.61,2.67,2.76,2.76,0,0,1-1.32-.31,4.92,4.92,0,0,0,.2-1.42c0-1-.28-2-1.29-2C102.88,19.84,102.85,22.48,102.85,24.21Z" style="fill:#fff"/><path d="M122.86,32.14h-4.61l-1.07-4.47h-5.05l-1,4.47h-3.29l5-18.12h5.46Zm-6.18-6.64-2.06-8.79-2,8.79Z" style="fill:#fff"/><path d="M127.25,24.21v7.93h-4.2v-14l3.43-.33.19,2.47a3.84,3.84,0,0,1,3.74-2.69,3.11,3.11,0,0,1,3.4,3.32,2.38,2.38,0,0,1-2.61,2.67,2.76,2.76,0,0,1-1.32-.31,4.92,4.92,0,0,0,.2-1.42c0-1-.28-2-1.29-2C127.28,19.84,127.25,22.48,127.25,24.21Z" style="fill:#fff"/><path d="M132.41,19.38v-.85a13.3,13.3,0,0,0,4.88-3.24h1.21v2.85H141v1.24h-2.53v9.77c0,1.1.36,1.7,1.35,1.89a2.79,2.79,0,0,1-2.69,1.51c-1.89,0-2.88-1.07-2.88-3V19.38Z" style="fill:#fff"/></g></svg>