<svg xmlns="http://www.w3.org/2000/svg" width="135" height="40" viewBox="0 0 135 40"><path fill="#BCBCBC" d="M130 40H5c-2.75 0-5-2.25-5-5V5c0-2.75 2.25-5 5-5h125c2.75 0 5 2.25 5 5v30c0 2.75-2.25 5-5 5z" opacity=".6"/><g opacity=".6"><path fill="#F05A28" d="M38.976 34.9S36.533 18.003 10.235 8.499c-1.493 18.43 9.78 24.894 12.45 26.324 1.264-2.42.35-9.874.35-9.874s6.159-.619 15.941 9.951"/><path fill="#9E1F63" d="M38.974 34.896s2.849-15.088-16.753-30.845c-6.644 15.243 1.061 24.03 2.916 26.026 1.779-1.69 3.177-8.299 3.177-8.299s5.419 1.272 10.66 13.118"/><path fill="#00ADEE" d="M38.973 34.892s5.916-10.846-5.188-27.76c-8.859 10.023-5.137 18.658-4.211 20.645 1.78-.852 4.486-5.564 4.486-5.564s3.834 2.313 4.913 12.679"/><path fill="#8BC53F" d="M38.973 34.89s7.919-6.99 3.926-23.832c-10.047 5.477-9.572 13.505-9.41 15.371 1.682-.166 5.231-3.165 5.231-3.165s2.409 2.977.253 11.626"/></g><g opacity=".6" fill="#FFF"><path d="M53.837 21.263c0 2.873.504 5.528 3.136 5.528 1.447 0 2.478-.79 3.048-2.129.592.285.855.769.855 1.448 0 2.215-2.411 3.289-4.65 3.289-4.626 0-6.294-3.379-6.294-7.631 0-4.584 1.887-7.765 6.47-7.765 2.348 0 4.563.724 4.563 3.069 0 1.316-.944 2.149-2.215 2.149-.352 0-.835-.067-1.141-.239.087-.396.155-.791.155-1.164 0-1.25-.374-2.236-1.625-2.236-2.15.001-2.302 3.532-2.302 5.681m17.745 1.91c0 3.64-1.692 6.227-5.311 6.227-3.552 0-5.308-2.457-5.308-6.008 0-3.598 1.71-6.099 5.308-6.099s5.311 2.281 5.311 5.88m-3.51.109c0-1.977-.155-4.673-1.801-4.673-1.644 0-1.799 2.72-1.799 4.673 0 2.016.09 4.801 1.799 4.801 1.712 0 1.801-2.785 1.801-4.801m7.651-10.068v13.511c0 .767.156 1.401.68 1.885-.348.44-1.138.638-1.708.638-1.514 0-2.326-.792-2.326-2.305V13.564l3.354-.35zm11.581 9.959c0 3.64-1.689 6.227-5.306 6.227-3.555 0-5.311-2.457-5.311-6.008 0-3.598 1.713-6.099 5.311-6.099 3.594 0 5.306 2.281 5.306 5.88m-3.508.109c0-1.977-.155-4.673-1.798-4.673-1.646 0-1.802 2.72-1.802 4.673 0 2.016.089 4.801 1.802 4.801 1.708 0 1.798-2.785 1.798-4.801m7.629-.704v6.339H88.07V17.731l2.741-.263.152 1.974c.461-1.338 1.583-2.149 2.986-2.149 1.666 0 2.718.987 2.718 2.653 0 1.359-.724 2.127-2.084 2.127-.285 0-.81-.064-1.052-.241.109-.349.152-.788.152-1.14 0-.812-.219-1.601-1.028-1.601-1.207.001-1.23 2.107-1.23 3.487m15.991 6.339h-3.687l-.855-3.574h-4.036l-.832 3.574h-2.632l3.969-14.475h4.366l3.707 14.475zm-4.938-5.309l-1.642-7.018-1.604 7.018h3.246zm8.446-1.03v6.339h-3.354V17.731l2.74-.263.149 1.974c.465-1.338 1.583-2.149 2.986-2.149 1.666 0 2.721.987 2.721 2.653 0 1.359-.727 2.127-2.087 2.127-.285 0-.81-.064-1.053-.241a4.02 4.02 0 0 0 .157-1.14c0-.812-.219-1.601-1.032-1.601-1.208.001-1.227 2.107-1.227 3.487"/><path d="M115.045 18.718v-.679c1.36-.505 2.96-1.513 3.905-2.588h.963v2.28h1.997v.986h-2.018v7.808c0 .878.285 1.36 1.076 1.515-.333.81-1.252 1.207-2.15 1.207-1.51 0-2.304-.855-2.304-2.391v-8.139h-1.469z"/></g></svg>